<svg width="35" height="35" viewBox="0 0 35 35" fill="none" xmlns="http://www.w3.org/2000/svg">
<path d="M17.5 0C12.4114 0 8.27148 4.13991 8.27148 9.22852C8.27148 14.3171 12.4114 18.457 17.5 18.457C22.5886 18.457 26.7285 14.3171 26.7285 9.22852C26.7285 4.13991 22.5886 0 17.5 0ZM17.5 16.4062C13.5422 16.4062 10.3223 13.1863 10.3223 9.22852C10.3223 5.27071 13.5422 2.05078 17.5 2.05078C21.4578 2.05078 24.6777 5.27071 24.6777 9.22852C24.6777 13.1863 21.4578 16.4062 17.5 16.4062Z" fill="#0A0A0A"/>
<path d="M20.3597 20.5762H14.6403C9.90965 20.5762 5.24104 22.7603 2.11914 27.4434V35H32.8809V27.4434C29.7635 22.7671 25.0962 20.5762 20.3597 20.5762ZM30.8301 32.9492H30.8301H4.16992V28.0709C6.56462 24.6561 10.4557 22.627 14.6403 22.627H20.3597C24.5444 22.627 28.4354 24.6561 30.8301 28.0709V32.9492Z" fill="#0A0A0A"/>
</svg>
