<svg width="16" height="16" viewBox="0 0 16 16" fill="none" xmlns="http://www.w3.org/2000/svg">
<g clip-path="url(#clip0_23_127)">
<mask id="mask0_23_127" style="mask-type:luminance" maskUnits="userSpaceOnUse" x="0" y="0" width="16" height="16">
<rect width="16" height="16" fill="white"/>
</mask>
<g mask="url(#mask0_23_127)">
<path d="M11.5 2.33325L9.83337 4.83325C9.50004 4.65605 8.83337 4.33322 8.00004 4.33322C6.00004 4.33322 4.33337 5.99989 4.33337 7.83322C4.33337 9.66655 5.66671 11.6668 8.00004 11.6668C9.86671 11.6668 11.1667 10.3334 11.1667 9.33342H8.00004V6.99999C10.3334 7.00002 14.6667 6.99989 14.6667 6.99989C14.8334 9.49999 14.0966 10.9667 13.1667 12.1666C11.7748 13.9626 9.72377 14.6667 8.00004 14.6667C4.66671 14.6667 1.33337 12.0001 1.33337 7.83322C1.33337 3.83325 4.90794 1.33325 7.66671 1.33325C10.4255 1.33325 11.5 2.33325 11.5 2.33325Z" fill="#211D1D"/>
</g>
</g>
<defs>
<clipPath id="clip0_23_127">
<rect width="16" height="16" fill="white"/>
</clipPath>
</defs>
</svg>
